<svg width="400" height="400" viewBox="0 0 400 400" fill="none" xmlns="http://www.w3.org/2000/svg">
  <rect width="400" height="400" fill="transparent"/>
  <g opacity="0.2">
    <rect x="14" y="17" width="1.4" height="1.4" fill="#D8E7F8"/>
    <rect x="66" y="42" width="1.2" height="1.2" fill="#EAF4FF"/>
    <rect x="129" y="26" width="1.2" height="1.2" fill="#D8E7F8"/>
    <rect x="182" y="55" width="1.5" height="1.5" fill="#EAF4FF"/>
    <rect x="248" y="31" width="1.3" height="1.3" fill="#D8E7F8"/>
    <rect x="299" y="47" width="1.2" height="1.2" fill="#EAF4FF"/>
    <rect x="349" y="21" width="1.4" height="1.4" fill="#D8E7F8"/>
    <rect x="23" y="138" width="1.3" height="1.3" fill="#EAF4FF"/>
    <rect x="91" y="122" width="1.2" height="1.2" fill="#D8E7F8"/>
    <rect x="141" y="149" width="1.4" height="1.4" fill="#EAF4FF"/>
    <rect x="196" y="129" width="1.2" height="1.2" fill="#D8E7F8"/>
    <rect x="265" y="153" width="1.3" height="1.3" fill="#EAF4FF"/>
    <rect x="313" y="127" width="1.2" height="1.2" fill="#D8E7F8"/>
    <rect x="362" y="145" width="1.3" height="1.3" fill="#EAF4FF"/>
    <rect x="34" y="258" width="1.2" height="1.2" fill="#D8E7F8"/>
    <rect x="88" y="239" width="1.5" height="1.5" fill="#EAF4FF"/>
    <rect x="148" y="274" width="1.2" height="1.2" fill="#D8E7F8"/>
    <rect x="219" y="241" width="1.3" height="1.3" fill="#EAF4FF"/>
    <rect x="281" y="266" width="1.3" height="1.3" fill="#D8E7F8"/>
    <rect x="334" y="246" width="1.2" height="1.2" fill="#EAF4FF"/>
    <rect x="365" y="279" width="1.4" height="1.4" fill="#D8E7F8"/>
    <rect x="19" y="362" width="1.3" height="1.3" fill="#EAF4FF"/>
    <rect x="73" y="342" width="1.2" height="1.2" fill="#D8E7F8"/>
    <rect x="118" y="371" width="1.3" height="1.3" fill="#EAF4FF"/>
    <rect x="188" y="333" width="1.2" height="1.2" fill="#D8E7F8"/>
    <rect x="244" y="366" width="1.4" height="1.4" fill="#EAF4FF"/>
    <rect x="306" y="338" width="1.2" height="1.2" fill="#D8E7F8"/>
    <rect x="357" y="363" width="1.3" height="1.3" fill="#EAF4FF"/>
  </g>
</svg>
